<mxfile host="app.diagrams.net" modified="2023-05-03T15:05:34.860Z" agent="Mozilla/5.0 (Windows NT 10.0; Win64; x64) AppleWebKit/537.36 (KHTML, like Gecko) Chrome/112.0.0.0 Safari/537.36" version="21.2.7" etag="dKQvVKP23g9nm9Su2UGk" type="github">
  <diagram name="Page-1" id="LYAC3AUQtwpool235_im">
    <mxGraphModel>
      <root>
        <mxCell id="0" />
        <mxCell id="1" parent="0" />
      </root>
    </mxGraphModel>
  </diagram>
</mxfile>
